<svg height="1406" width="720" xmlns="http://www.w3.org/2000/svg">
<rect height="1406" fill="#555" width="720"></rect>
<text fill="#7f7" font-family="Courier New" font-size="12" xml:space="preserve">
<tspan x="10" y="26">7 megabytes installed</tspan>
<tspan x="10" y="42"></tspan>
<tspan x="10" y="58">node_modules</tspan>
<tspan x="10" y="74">└─┬ surge@0.19.0 </tspan>
<tspan x="10" y="90">  ├─┬ du@0.1.0 </tspan>
<tspan x="10" y="106">  │ └── async@0.1.22 </tspan>
<tspan x="10" y="122">  ├─┬ fstream-ignore@1.0.2 </tspan>
<tspan x="10" y="138">  │ ├─┬ fstream@1.0.11 </tspan>
<tspan x="10" y="154">  │ │ ├── graceful-fs@4.1.11 </tspan>
<tspan x="10" y="170">  │ │ ├─┬ mkdirp@0.5.1 </tspan>
<tspan x="10" y="186">  │ │ │ └── minimist@0.0.8 </tspan>
<tspan x="10" y="202">  │ │ └─┬ rimraf@2.6.1 </tspan>
<tspan x="10" y="218">  │ │   └─┬ glob@7.1.1 </tspan>
<tspan x="10" y="234">  │ │     ├── fs.realpath@1.0.0 </tspan>
<tspan x="10" y="250">  │ │     ├─┬ inflight@1.0.6 </tspan>
<tspan x="10" y="266">  │ │     │ └── wrappy@1.0.2 </tspan>
<tspan x="10" y="282">  │ │     ├── minimatch@3.0.3 </tspan>
<tspan x="10" y="298">  │ │     ├── once@1.4.0 </tspan>
<tspan x="10" y="314">  │ │     └── path-is-absolute@1.0.1 </tspan>
<tspan x="10" y="330">  │ ├── inherits@2.0.3 </tspan>
<tspan x="10" y="346">  │ └─┬ minimatch@2.0.10 </tspan>
<tspan x="10" y="362">  │   └─┬ brace-expansion@1.1.7 </tspan>
<tspan x="10" y="378">  │     ├── balanced-match@0.4.2 </tspan>
<tspan x="10" y="394">  │     └── concat-map@0.0.1 </tspan>
<tspan x="10" y="410">  ├── is-domain@0.0.1 </tspan>
<tspan x="10" y="426">  ├── minimist@1.1.1 </tspan>
<tspan x="10" y="442">  ├── moniker@0.1.2 </tspan>
<tspan x="10" y="458">  ├── netrc@0.1.4 </tspan>
<tspan x="10" y="474">  ├── progress@1.1.8 </tspan>
<tspan x="10" y="490">  ├─┬ prompt@0.2.14 </tspan>
<tspan x="10" y="506">  │ ├── pkginfo@0.4.0 </tspan>
<tspan x="10" y="522">  │ ├── revalidator@0.1.8 </tspan>
<tspan x="10" y="538">  │ ├─┬ utile@0.2.1 </tspan>
<tspan x="10" y="554">  │ │ ├── async@0.2.10 </tspan>
<tspan x="10" y="570">  │ │ ├── deep-equal@1.0.1 </tspan>
<tspan x="10" y="586">  │ │ ├── i@0.3.5 </tspan>
<tspan x="10" y="602">  │ │ └── ncp@0.4.2 </tspan>
<tspan x="10" y="618">  │ └─┬ winston@0.8.3 </tspan>
<tspan x="10" y="634">  │   ├── async@0.2.10 </tspan>
<tspan x="10" y="650">  │   ├── colors@0.6.2 </tspan>
<tspan x="10" y="666">  │   ├── cycle@1.0.3 </tspan>
<tspan x="10" y="682">  │   ├── eyes@0.1.8 </tspan>
<tspan x="10" y="698">  │   ├── isstream@0.1.2 </tspan>
<tspan x="10" y="714">  │   ├── pkginfo@0.3.1 </tspan>
<tspan x="10" y="730">  │   └── stack-trace@0.0.9 </tspan>
<tspan x="10" y="746">  ├─┬ read@1.0.5 </tspan>
<tspan x="10" y="762">  │ └── mute-stream@0.0.7 </tspan>
<tspan x="10" y="778">  ├─┬ request@2.40.0 </tspan>
<tspan x="10" y="794">  │ ├── aws-sign2@0.5.0 </tspan>
<tspan x="10" y="810">  │ ├── forever-agent@0.5.2 </tspan>
<tspan x="10" y="826">  │ ├─┬ form-data@0.1.4 </tspan>
<tspan x="10" y="842">  │ │ ├── async@0.9.2 </tspan>
<tspan x="10" y="858">  │ │ ├─┬ combined-stream@0.0.7 </tspan>
<tspan x="10" y="874">  │ │ │ └── delayed-stream@0.0.5 </tspan>
<tspan x="10" y="890">  │ │ └── mime@1.2.11 </tspan>
<tspan x="10" y="906">  │ ├─┬ hawk@1.1.1 </tspan>
<tspan x="10" y="922">  │ │ ├── boom@0.4.2 </tspan>
<tspan x="10" y="938">  │ │ ├── cryptiles@0.2.2 </tspan>
<tspan x="10" y="954">  │ │ ├── hoek@0.9.1 </tspan>
<tspan x="10" y="970">  │ │ └── sntp@0.2.4 </tspan>
<tspan x="10" y="986">  │ ├─┬ http-signature@0.10.1 </tspan>
<tspan x="10" y="1002">  │ │ ├── asn1@0.1.11 </tspan>
<tspan x="10" y="1018">  │ │ ├── assert-plus@0.1.5 </tspan>
<tspan x="10" y="1034">  │ │ └── ctype@0.5.3 </tspan>
<tspan x="10" y="1050">  │ ├── json-stringify-safe@5.0.1 </tspan>
<tspan x="10" y="1066">  │ ├── mime-types@1.0.2 </tspan>
<tspan x="10" y="1082">  │ ├── node-uuid@1.4.8 </tspan>
<tspan x="10" y="1098">  │ ├── oauth-sign@0.3.0 </tspan>
<tspan x="10" y="1114">  │ ├── qs@1.0.2 </tspan>
<tspan x="10" y="1130">  │ ├── stringstream@0.0.5 </tspan>
<tspan x="10" y="1146">  │ ├─┬ tough-cookie@2.3.2 </tspan>
<tspan x="10" y="1162">  │ │ └── punycode@1.4.1 </tspan>
<tspan x="10" y="1178">  │ └── tunnel-agent@0.4.3 </tspan>
<tspan x="10" y="1194">  ├─┬ split@0.3.1 </tspan>
<tspan x="10" y="1210">  │ └── through@2.3.8 </tspan>
<tspan x="10" y="1226">  ├── surge-ignore@0.2.0 </tspan>
<tspan x="10" y="1242">  ├─┬ tar@1.0.0 </tspan>
<tspan x="10" y="1258">  │ └── block-stream@0.0.9 </tspan>
<tspan x="10" y="1274">  ├─┬ tar.gz@0.1.1 </tspan>
<tspan x="10" y="1290">  │ ├─┬ commander@1.1.1 </tspan>
<tspan x="10" y="1306">  │ │ └── keypress@0.1.0 </tspan>
<tspan x="10" y="1322">  │ ├─┬ fstream@0.1.31 </tspan>
<tspan x="10" y="1338">  │ │ └─┬ graceful-fs@3.0.11 </tspan>
<tspan x="10" y="1354">  │ │   └── natives@1.1.0 </tspan>
<tspan x="10" y="1370">  │ └── tar@0.1.20 </tspan>
<tspan x="10" y="1386">  └── url-parse-as-address@1.0.0</tspan>
</text>
</svg>
